<svg xmlns="http://www.w3.org/2000/svg" width="75" height="64" viewBox="0 0 75 64"><g id="Icon" transform="translate(-331 -2253)"><circle id="Ellipse_335" data-name="Ellipse 335" cx="30" cy="30" r="30" transform="translate(346 2257)" fill="#eee6ff"></circle><path id="agreement" d="M33.659,1.994a.893.893,0,0,0-.132.01H6V51.994H41.707V10.178a.893.893,0,0,0,0-.286V9.669l-.15-.146a.893.893,0,0,0-.2-.2L34.384,2.346a.893.893,0,0,0-.164-.164L34.042,2h-.23a.893.893,0,0,0-.153-.01ZM7.785,3.79H32.78v7.141h7.141V50.209H7.785Zm26.78,1.262,4.094,4.094H34.565ZM16.712,7.361V9.146h12.5V7.361Zm-5.356,5.356V14.5H36.351V12.717Zm0,3.571v1.785H36.351V16.287Zm0,3.571v1.785H36.351V19.858Zm0,3.571v1.785H36.351V23.429Zm0,3.571v1.785H36.351V27Zm0,3.571v1.785h12.5V30.57Zm11.727,3.553a1.477,1.477,0,0,0-.408.024v.028a1.183,1.183,0,0,0-.917.683,6.836,6.836,0,0,0-.415.715c-.124.236-.238.462-.328.614a.057.057,0,0,1-.021.028.227.227,0,0,1-.035,0c-.178,0-.432,0-.7-.017a6.614,6.614,0,0,0-.837.017,1.192,1.192,0,0,0-1.05.464,1.166,1.166,0,0,0-.258,1.109,6.817,6.817,0,0,0,.15.812c.059.259.116.5.147.677a.258.258,0,0,1,0,.031c-.01.018-.009.021-.021.028-.133.116-.334.27-.544.436a6.952,6.952,0,0,0-.631.54,1.268,1.268,0,0,0,.021,2.037,6.969,6.969,0,0,0,.641.53c.214.161.419.312.555.425.012.018.011.017.021.024a.23.23,0,0,1,0,.031c-.026.173-.076.423-.129.683a6.792,6.792,0,0,0-.132.813,1.165,1.165,0,0,0,.282,1.1,1.2,1.2,0,0,0,1.06.446c.287.021.565,0,.833,0,.269-.018.523-.024.7-.024H21.1a.052.052,0,0,0,.021.024c.093.15.213.37.342.6a6.927,6.927,0,0,0,.432.708,1.185,1.185,0,0,0,.931.666,1.2,1.2,0,0,0,1.1-.335,6.951,6.951,0,0,0,.638-.53c.2-.18.383-.355.52-.467.011-.018.017,0,.028-.017h.035c.168.055.405.152.656.248a7.057,7.057,0,0,0,.788.269,1.212,1.212,0,0,0,1.151-.084,1.168,1.168,0,0,0,.624-.952,6.825,6.825,0,0,0,.143-.813c.035-.263.066-.514.1-.687a.141.141,0,0,1,.01-.031c.013,0,.014-.017.028-.017.166-.064.408-.142.663-.227a7.346,7.346,0,0,0,.781-.3,1.18,1.18,0,0,0,.823-.792,1.161,1.161,0,0,0-.139-1.126,6.877,6.877,0,0,0-.418-.711c-.145-.224-.288-.437-.377-.589-.007-.018,0-.019-.01-.031a.093.093,0,0,1,.01-.028c.085-.154.223-.369.363-.6a6.877,6.877,0,0,0,.4-.722,1.162,1.162,0,0,0,.115-1.13,1.182,1.182,0,0,0-.84-.774,7.1,7.1,0,0,0-.785-.279c-.257-.08-.5-.156-.67-.216-.013,0-.016-.017-.028-.017,0-.018-.011-.017-.014-.031-.035-.171-.071-.425-.112-.687a6.8,6.8,0,0,0-.161-.809,1.169,1.169,0,0,0-.645-.938,1.2,1.2,0,0,0-1.151-.059,6.9,6.9,0,0,0-.781.286c-.248.1-.485.2-.652.262h-.031c-.012,0-.02,0-.031-.021-.139-.109-.328-.278-.53-.453a7.04,7.04,0,0,0-.649-.52A1.341,1.341,0,0,0,23.083,34.123Zm-.028,2.061c.068.057.114.086.188.15.19.164.391.348.6.513a1.554,1.554,0,0,0,1.789.289c.251-.089.5-.2.736-.293.091-.037.144-.053.227-.084.015.086.03.141.045.237.038.247.073.513.126.771a1.413,1.413,0,0,0,.366.872,1.431,1.431,0,0,0,.813.488c.25.091.512.165.753.24.094.029.146.052.23.08-.044.077-.067.129-.119.213-.132.213-.277.438-.4.67a1.51,1.51,0,0,0,.017,1.792c.132.229.282.452.418.663.053.082.08.131.126.206-.083.03-.133.053-.227.084-.239.08-.5.161-.75.258a1.432,1.432,0,0,0-.8.506,1.414,1.414,0,0,0-.349.879c-.047.259-.076.526-.108.774-.013.1-.025.15-.038.237-.083-.03-.138-.044-.23-.08-.235-.091-.487-.2-.739-.279a1.549,1.549,0,0,0-1.782.331c-.2.168-.4.354-.589.523-.073.066-.118.1-.185.153-.044-.075-.075-.121-.122-.206-.121-.219-.248-.455-.387-.68a1.423,1.423,0,0,0-.645-.694,1.454,1.454,0,0,0-.935-.188c-.267,0-.539.019-.791.028h-.244c.015-.086.022-.141.042-.237.05-.245.107-.507.146-.767a1.4,1.4,0,0,0-.042-.941,1.422,1.422,0,0,0-.6-.736c-.2-.17-.423-.326-.624-.478-.079-.059-.119-.1-.188-.157.068-.055.107-.093.185-.154.2-.155.414-.321.614-.5a1.513,1.513,0,0,0,.6-1.688c-.045-.26-.109-.52-.164-.764-.022-.095-.028-.152-.045-.237h.24c.253,0,.525.017.792.017a1.409,1.409,0,0,0,.931-.206,1.428,1.428,0,0,0,.631-.708c.134-.228.253-.465.37-.687.046-.087.076-.133.119-.209Zm2.622,2.839-2.626,2.594L23.03,41.6l-.649-.642-.649-.638-1.252,1.269.645.638.648.642,1.276,1.259,3.881-3.836Z" transform="translate(325 2251.006)" fill="#00155c"></path></g></svg>